<svg fill="#FFFFFF" xmlns="http://www.w3.org/2000/svg" xmlns:xlink="http://www.w3.org/1999/xlink" version="1.1" x="0px" y="0px" viewBox="0 0 100 100" enable-background="new 0 0 100 100" xml:space="preserve"><path d="M15.646,15.646c-18.974,18.974-18.974,49.734,0,68.708c18.974,18.975,49.734,18.975,68.708,0  c18.975-18.975,18.975-49.734,0-68.708C65.38-3.328,34.62-3.328,15.646,15.646z M77.956,77.956  C62.541,93.37,37.459,93.37,22.044,77.955c-15.415-15.414-15.414-40.497,0-55.911s40.497-15.415,55.911,0  C93.37,37.459,93.37,62.541,77.956,77.956z M37.357,30.96l-6.398,6.398L43.602,50L30.96,62.643l6.399,6.398l12.642-12.643  l12.644,12.643l6.397-6.398L56.398,49.999l12.643-12.642l-6.398-6.398L49.999,43.602L37.357,30.96z"></path></svg>